# xmcd
#
# Track frame offsets: 
#        183
#        10263
#        20465
#        34763
#        43058
#        55440
#        65468
#        76193
#        88555
#        101118
#        108935
#        119483
#
# Disc length: 1800 seconds
#
# Revision: 0
# Processed by: cddbd v1.5.2PL0 Copyright (c) Steve Scherf et al.
# Submitted via: ExactAudioCopyFreeDBPlugin 1.0
#
DISCID=9707060c
DTITLE=Tumbleweeds - Sweet Memories
DYEAR=1976
DGENRE=Country
TTITLE0=Going Back To The Hard Times
TTITLE1=House Of Love
TTITLE2=Sweet Memories
TTITLE3=Close Up Steel
TTITLE4=Streets Of Laredo
TTITLE5=Love Is The Look
TTITLE6=I Never Knew What The Song Meant Before
TTITLE7=How Can I Say I Love You
TTITLE8=It Might As Well Have Rained
TTITLE9=Between Two Doors
TTITLE10=Ashes Of Love
TTITLE11=Hickory Wind
EXTD=
EXTT0=
EXTT1=
EXTT2=
EXTT3=
EXTT4=
EXTT5=
EXTT6=
EXTT7=
EXTT8=
EXTT9=
EXTT10=
EXTT11=
PLAYORDER=
